<svg viewBox="0 0 900 280" xmlns="http://www.w3.org/2000/svg" font-family="'Segoe UI',sans-serif">
  <rect width="900" height="280" fill="#0a0f1e"/>
  <!-- left panel: summary -->
  <rect x="30" y="40" width="220" height="200" rx="12" fill="#161b22" stroke="#d4a843" stroke-opacity=".18" stroke-width="1"/>
  <rect x="44" y="58" width="192" height="44" rx="9" fill="#3fb950" fill-opacity=".08" stroke="#3fb950" stroke-opacity=".2" stroke-width="1"/>
  <text x="60" y="73" font-size="9" fill="#8892a4">TOTAL INCOME</text>
  <text x="60" y="91" font-size="15" font-weight="700" fill="#3fb950">₱ 15,000.00</text>
  <rect x="44" y="110" width="192" height="44" rx="9" fill="#f85149" fill-opacity=".08" stroke="#f85149" stroke-opacity=".2" stroke-width="1"/>
  <text x="60" y="125" font-size="9" fill="#8892a4">TOTAL EXPENSES</text>
  <text x="60" y="143" font-size="15" font-weight="700" fill="#f85149">₱ 8,450.00</text>
  <rect x="44" y="162" width="192" height="44" rx="9" fill="#d4a843" fill-opacity=".08" stroke="#d4a843" stroke-opacity=".2" stroke-width="1"/>
  <text x="60" y="177" font-size="9" fill="#8892a4">BALANCE</text>
  <text x="60" y="195" font-size="15" font-weight="700" fill="#d4a843">₱ 6,550.00</text>
  <!-- center -->
  <text x="450" y="88"  font-size="11" font-weight="600" fill="#d4a843" text-anchor="middle" letter-spacing="4">PROJECT  03</text>
  <text x="450" y="136" font-size="42" font-weight="900" fill="#e6edf3" text-anchor="middle" letter-spacing="-1">Expense Tracker</text>
  <text x="450" y="162" font-size="13" fill="#8892a4" text-anchor="middle">Income &amp; Expenses · Categories · Progress Bar · CRUD</text>
  <rect x="312" y="178" width="60" height="20" rx="10" fill="#d4a843" fill-opacity=".12" stroke="#d4a843" stroke-opacity=".3" stroke-width="1"/>
  <text x="342" y="192" font-size="10" fill="#d4a843" text-anchor="middle">HTML5</text>
  <rect x="380" y="178" width="50" height="20" rx="10" fill="#d4a843" fill-opacity=".12" stroke="#d4a843" stroke-opacity=".3" stroke-width="1"/>
  <text x="405" y="192" font-size="10" fill="#d4a843" text-anchor="middle">CSS3</text>
  <rect x="438" y="178" width="84" height="20" rx="10" fill="#d4a843" fill-opacity=".12" stroke="#d4a843" stroke-opacity=".3" stroke-width="1"/>
  <text x="480" y="192" font-size="10" fill="#d4a843" text-anchor="middle">JavaScript</text>
  <rect x="530" y="178" width="90" height="20" rx="10" fill="#d4a843" fill-opacity=".12" stroke="#d4a843" stroke-opacity=".3" stroke-width="1"/>
  <text x="575" y="192" font-size="10" fill="#d4a843" text-anchor="middle">localStorage</text>
  <!-- right panel: category breakdown -->
  <rect x="650" y="40" width="220" height="200" rx="12" fill="#161b22" stroke="#d4a843" stroke-opacity=".15" stroke-width="1"/>
  <text x="760" y="66" font-size="9" fill="#8892a4" text-anchor="middle" letter-spacing="1">BY CATEGORY</text>
  <text x="664" y="90" font-size="11" fill="#8892a4">🍜 food</text>
  <rect x="718" y="82" width="136" height="7" rx="3" fill="#0d1117"/>
  <rect x="718" y="82" width="136" height="7" rx="3" fill="#d4a843"/>
  <text x="860" y="90" font-size="10" font-weight="600" fill="#e6edf3" text-anchor="end">₱3,200</text>
  <text x="664" y="112" font-size="11" fill="#8892a4">🚌 transport</text>
  <rect x="718" y="104" width="136" height="7" rx="3" fill="#0d1117"/>
  <rect x="718" y="104" width="78" height="7" rx="3" fill="#d4a843"/>
  <text x="860" y="112" font-size="10" font-weight="600" fill="#e6edf3" text-anchor="end">₱1,800</text>
  <text x="664" y="134" font-size="11" fill="#8892a4">📚 school</text>
  <rect x="718" y="126" width="136" height="7" rx="3" fill="#0d1117"/>
  <rect x="718" y="126" width="50" height="7" rx="3" fill="#d4a843"/>
  <text x="860" y="134" font-size="10" font-weight="600" fill="#e6edf3" text-anchor="end">₱1,100</text>
  <text x="664" y="156" font-size="11" fill="#8892a4">🛍 shopping</text>
  <rect x="718" y="148" width="136" height="7" rx="3" fill="#0d1117"/>
  <rect x="718" y="148" width="30" height="7" rx="3" fill="#d4a843"/>
  <text x="860" y="156" font-size="10" font-weight="600" fill="#e6edf3" text-anchor="end">₱640</text>
  <text x="664" y="178" font-size="11" fill="#8892a4">💊 health</text>
  <rect x="718" y="170" width="136" height="7" rx="3" fill="#0d1117"/>
  <rect x="718" y="170" width="16" height="7" rx="3" fill="#d4a843"/>
  <text x="860" y="178" font-size="10" font-weight="600" fill="#e6edf3" text-anchor="end">₱310</text>
  <rect x="660" y="190" width="200" height="1" fill="#ffffff" fill-opacity=".06"/>
  <text x="760" y="210" font-size="11" font-weight="700" fill="#d4a843" text-anchor="middle">56% of income spent</text>
  <rect x="0" y="270" width="900" height="10" fill="#d4a843" fill-opacity=".06"/>
</svg>
