<svg viewBox="0 0 640 460" xmlns="http://www.w3.org/2000/svg" font-family="'Segoe UI',sans-serif" preserveAspectRatio="xMidYMid meet">
  <rect width="640" height="460" fill="#0d1117"/>
  <!-- Header -->
  <rect x="40" y="16" width="560" height="52" rx="12" fill="#161b22" stroke="#d4a843" stroke-opacity=".2" stroke-width="1"/>
  <text x="320" y="38" font-size="18" font-weight="700" fill="#d4a843" text-anchor="middle">Expense Tracker</text>
  <text x="320" y="56" font-size="10" fill="#8892a4" text-anchor="middle">April 2026</text>
  <!-- Summary compact -->
  <rect x="40"  y="80" width="172" height="44" rx="10" fill="#161b22" stroke="#3fb950" stroke-opacity=".22" stroke-width="1"/>
  <text x="126" y="97" font-size="9" fill="#8892a4" text-anchor="middle">INCOME</text>
  <text x="126" y="113" font-size="12" font-weight="700" fill="#3fb950" text-anchor="middle">₱ 15,000.00</text>
  <rect x="234" y="80" width="172" height="44" rx="10" fill="#161b22" stroke="#f85149" stroke-opacity=".22" stroke-width="1"/>
  <text x="320" y="97" font-size="9" fill="#8892a4" text-anchor="middle">EXPENSES</text>
  <text x="320" y="113" font-size="12" font-weight="700" fill="#f85149" text-anchor="middle">₱ 8,450.00</text>
  <rect x="428" y="80" width="172" height="44" rx="10" fill="#161b22" stroke="#d4a843" stroke-opacity=".22" stroke-width="1"/>
  <text x="514" y="97" font-size="9" fill="#8892a4" text-anchor="middle">BALANCE</text>
  <text x="514" y="113" font-size="12" font-weight="700" fill="#d4a843" text-anchor="middle">₱ 6,550.00</text>
  <!-- Progress -->
  <rect x="40" y="136" width="560" height="32" rx="10" fill="#161b22" stroke="#ffffff" stroke-opacity=".05" stroke-width="1"/>
  <rect x="60" y="150" width="520" height="6" rx="3" fill="#0d1117"/>
  <rect x="60" y="150" width="291" height="6" rx="3" fill="#3fb950"/>
  <text x="580" y="148" font-size="10" fill="#8892a4" text-anchor="end">56% of income</text>
  <!-- History with EXPENSE filter active -->
  <rect x="40" y="180" width="560" height="260" rx="12" fill="#161b22" stroke="#ffffff" stroke-opacity=".05" stroke-width="1"/>
  <text x="60" y="202" font-size="9" font-weight="700" fill="#d4a843" letter-spacing="1">HISTORY</text>
  <!-- Filter tabs -->
  <text x="310" y="202" font-size="10" fill="#8892a4">All</text>
  <rect x="332" y="190" width="72" height="18" rx="9" fill="#f85149" fill-opacity=".15" stroke="#f85149" stroke-opacity=".4" stroke-width="1"/>
  <text x="368" y="202" font-size="10" fill="#f85149" text-anchor="middle">Expenses</text>
  <text x="420" y="202" font-size="10" fill="#8892a4">Income</text>
  <!-- Expense rows only -->
  <rect x="52" y="210" width="536" height="30" rx="8" fill="#ffffff" fill-opacity=".025" stroke="#ffffff" stroke-opacity=".04" stroke-width="1"/>
  <text x="70" y="229" font-size="14">🍜</text>
  <text x="92" y="224" font-size="11" font-weight="500" fill="#e6edf3">Jollibee lunch</text>
  <text x="92" y="236" font-size="9" fill="#4a5568">Apr 18 · food</text>
  <text x="562" y="229" font-size="12" font-weight="700" fill="#f85149" text-anchor="end">−₱220.00</text>
  <circle cx="584" cy="225" r="9" fill="#f85149" fill-opacity=".1"/>
  <text x="584" y="229" font-size="10" fill="#f85149" text-anchor="middle">✕</text>
  <rect x="52" y="244" width="536" height="30" rx="8" fill="#ffffff" fill-opacity=".025" stroke="#ffffff" stroke-opacity=".04" stroke-width="1"/>
  <text x="70" y="263" font-size="14">🚌</text>
  <text x="92" y="258" font-size="11" font-weight="500" fill="#e6edf3">Jeepney fare x2</text>
  <text x="92" y="270" font-size="9" fill="#4a5568">Apr 17 · transport</text>
  <text x="562" y="263" font-size="12" font-weight="700" fill="#f85149" text-anchor="end">−₱50.00</text>
  <circle cx="584" cy="259" r="9" fill="#f85149" fill-opacity=".1"/>
  <text x="584" y="263" font-size="10" fill="#f85149" text-anchor="middle">✕</text>
  <rect x="52" y="278" width="536" height="30" rx="8" fill="#ffffff" fill-opacity=".025" stroke="#ffffff" stroke-opacity=".04" stroke-width="1"/>
  <text x="70" y="297" font-size="14">📚</text>
  <text x="92" y="292" font-size="11" font-weight="500" fill="#e6edf3">Photocopy notes</text>
  <text x="92" y="304" font-size="9" fill="#4a5568">Apr 16 · school</text>
  <text x="562" y="297" font-size="12" font-weight="700" fill="#f85149" text-anchor="end">−₱80.00</text>
  <circle cx="584" cy="293" r="9" fill="#f85149" fill-opacity=".1"/>
  <text x="584" y="297" font-size="10" fill="#f85149" text-anchor="middle">✕</text>
  <rect x="52" y="312" width="536" height="30" rx="8" fill="#ffffff" fill-opacity=".025" stroke="#ffffff" stroke-opacity=".04" stroke-width="1"/>
  <text x="70" y="331" font-size="14">🛍</text>
  <text x="92" y="326" font-size="11" font-weight="500" fill="#e6edf3">SM new shirt</text>
  <text x="92" y="338" font-size="9" fill="#4a5568">Apr 15 · shopping</text>
  <text x="562" y="331" font-size="12" font-weight="700" fill="#f85149" text-anchor="end">−₱350.00</text>
  <circle cx="584" cy="327" r="9" fill="#f85149" fill-opacity=".1"/>
  <text x="584" y="331" font-size="10" fill="#f85149" text-anchor="middle">✕</text>
  <rect x="52" y="346" width="536" height="30" rx="8" fill="#ffffff" fill-opacity=".025" stroke="#ffffff" stroke-opacity=".04" stroke-width="1"/>
  <text x="70" y="365" font-size="14">💊</text>
  <text x="92" y="360" font-size="11" font-weight="500" fill="#e6edf3">Medicine</text>
  <text x="92" y="372" font-size="9" fill="#4a5568">Apr 14 · health</text>
  <text x="562" y="365" font-size="12" font-weight="700" fill="#f85149" text-anchor="end">−₱150.00</text>
  <circle cx="584" cy="361" r="9" fill="#f85149" fill-opacity=".1"/>
  <text x="584" y="365" font-size="10" fill="#f85149" text-anchor="middle">✕</text>
  <!-- Filter info -->
  <text x="320" y="420" font-size="11" fill="#4a5568" text-anchor="middle">Showing expenses only · Click ✕ to delete any transaction</text>
</svg>
