<svg viewBox="0 0 480 420" xmlns="http://www.w3.org/2000/svg" font-family="'Segoe UI', system-ui, sans-serif">
  <rect width="480" height="420" fill="#0d1117"/>
  <!-- Search with Tokyo typed -->
  <rect x="20" y="16" width="440" height="36" rx="10" fill="#161b22" stroke="#d4a843" stroke-width="1.5"/>
  <text x="56" y="38" font-size="12" fill="#e6edf3">Tokyo|</text>
  <rect x="374" y="22" width="76" height="24" rx="7" fill="#d4a843"/>
  <text x="412" y="38" font-size="12" font-weight="700" fill="#0a0f1e" text-anchor="middle">Search</text>
  <!-- Cities - Tokyo highlighted -->
  <rect x="20" y="60" width="46" height="20" rx="10" fill="#d4a843" fill-opacity="0.06" stroke="#d4a843" stroke-width="1" stroke-opacity="0.2"/>
  <text x="43" y="74" font-size="10" fill="#d4a843" text-anchor="middle">Baguio</text>
  <rect x="234" y="60" width="40" height="20" rx="10" fill="#d4a843" fill-opacity="0.22" stroke="#d4a843" stroke-width="1" stroke-opacity="0.5"/>
  <text x="254" y="74" font-size="10" fill="#d4a843" text-anchor="middle">Tokyo</text>

  <!-- Card - Tokyo sunny background tint -->
  <rect x="20" y="88" width="440" height="316" rx="18" fill="#1a2010" stroke="#d4a843" stroke-width="1" stroke-opacity="0.2"/>

  <text x="46" y="126" font-size="20" font-weight="700" fill="#e6edf3">Tokyo</text>
  <text x="46" y="144" font-size="12" fill="#8892a4">Japan 🇯🇵</text>
  <text x="46" y="160" font-size="11" fill="#4a5568">02:42:33 PM</text>
  <text x="400" y="150" font-size="52" text-anchor="middle">☀️</text>
  <text x="400" y="170" font-size="11" fill="#8892a4" text-anchor="middle">Clear Sky</text>

  <!-- Fahrenheit selected -->
  <text x="46" y="218" font-size="68" font-weight="900" fill="#d4a843" letter-spacing="-2">71</text>
  <rect x="118" y="178" width="26" height="20" rx="5" fill="none" stroke="#d4a843" stroke-width="1" stroke-opacity="0.25"/>
  <text x="131" y="192" font-size="11" fill="#8892a4" text-anchor="middle">°C</text>
  <rect x="118" y="202" width="26" height="20" rx="5" fill="#d4a843" fill-opacity="0.18" stroke="#d4a843" stroke-width="1"/>
  <text x="131" y="216" font-size="11" font-weight="700" fill="#d4a843" text-anchor="middle">°F</text>

  <!-- Details -->
  <rect x="20" y="234" width="440" height="1" fill="#ffffff" fill-opacity="0.06"/>
  <text x="86" y="253" font-size="9" fill="#4a5568" text-anchor="middle">HUMIDITY</text>
  <text x="86" y="269" font-size="13" font-weight="600" fill="#e6edf3" text-anchor="middle">60%</text>
  <line x1="170" y1="237" x2="170" y2="276" stroke="#ffffff" stroke-opacity="0.06" stroke-width="1"/>
  <text x="240" y="253" font-size="9" fill="#4a5568" text-anchor="middle">WIND</text>
  <text x="240" y="269" font-size="13" font-weight="600" fill="#e6edf3" text-anchor="middle">20 km/h</text>
  <line x1="320" y1="237" x2="320" y2="276" stroke="#ffffff" stroke-opacity="0.06" stroke-width="1"/>
  <text x="390" y="253" font-size="9" fill="#4a5568" text-anchor="middle">UV INDEX</text>
  <text x="390" y="269" font-size="13" font-weight="600" fill="#e6edf3" text-anchor="middle">4 Moderate</text>

  <!-- Forecast -->
  <rect x="20" y="278" width="440" height="1" fill="#ffffff" fill-opacity="0.06"/>
  <text x="46" y="296" font-size="9" font-weight="700" fill="#d4a843" letter-spacing="1">5-DAY FORECAST (°F)</text>
  <rect x="32"  y="304" width="70" height="40" rx="8" fill="#ffffff" fill-opacity="0.03" stroke="#ffffff" stroke-opacity="0.06" stroke-width="1"/>
  <text x="67"  y="318" font-size="9" fill="#8892a4" text-anchor="middle">MON</text>
  <text x="63"  y="334" font-size="16">☀️</text><text x="67" y="339" font-size="10" font-weight="700" fill="#e6edf3" text-anchor="middle"> 73°</text>
  <rect x="110" y="304" width="70" height="40" rx="8" fill="#ffffff" fill-opacity="0.03" stroke="#ffffff" stroke-opacity="0.06" stroke-width="1"/>
  <text x="145" y="318" font-size="9" fill="#8892a4" text-anchor="middle">TUE</text>
  <text x="141" y="334" font-size="16">🌤</text><text x="145" y="339" font-size="10" font-weight="700" fill="#e6edf3" text-anchor="middle"> 72°</text>
  <rect x="188" y="304" width="70" height="40" rx="8" fill="#ffffff" fill-opacity="0.03" stroke="#ffffff" stroke-opacity="0.06" stroke-width="1"/>
  <text x="223" y="318" font-size="9" fill="#8892a4" text-anchor="middle">WED</text>
  <text x="219" y="334" font-size="16">⛅</text><text x="223" y="339" font-size="10" font-weight="700" fill="#e6edf3" text-anchor="middle"> 68°</text>
  <rect x="266" y="304" width="70" height="40" rx="8" fill="#ffffff" fill-opacity="0.03" stroke="#ffffff" stroke-opacity="0.06" stroke-width="1"/>
  <text x="301" y="318" font-size="9" fill="#8892a4" text-anchor="middle">THU</text>
  <text x="297" y="334" font-size="16">🌧</text><text x="301" y="339" font-size="10" font-weight="700" fill="#e6edf3" text-anchor="middle"> 64°</text>
  <rect x="344" y="304" width="70" height="40" rx="8" fill="#ffffff" fill-opacity="0.03" stroke="#ffffff" stroke-opacity="0.06" stroke-width="1"/>
  <text x="379" y="318" font-size="9" fill="#8892a4" text-anchor="middle">FRI</text>
  <text x="375" y="334" font-size="16">🌤</text><text x="379" y="339" font-size="10" font-weight="700" fill="#e6edf3" text-anchor="middle"> 70°</text>

  <text x="240" y="412" font-size="10" fill="#4a5568" text-anchor="middle">Screenshot 2 — Tokyo city, °F toggle active</text>
</svg>
