<svg viewBox="0 0 480 520" xmlns="http://www.w3.org/2000/svg" font-family="'Segoe UI', system-ui, sans-serif">
  <rect width="480" height="520" fill="#0d1117"/>
  <!-- Search -->
  <rect x="20" y="16" width="440" height="36" rx="10" fill="#161b22" stroke="#d4a843" stroke-width="1" stroke-opacity="0.2"/>
  <circle cx="40" cy="34" r="5" fill="none" stroke="#8892a4" stroke-width="1.5"/>
  <line x1="44" y1="38" x2="48" y2="42" stroke="#8892a4" stroke-width="1.5"/>
  <text x="56" y="38" font-size="12" fill="#4a5568">Search city...</text>
  <rect x="374" y="22" width="76" height="24" rx="7" fill="#d4a843"/>
  <text x="412" y="38" font-size="12" font-weight="700" fill="#0a0f1e" text-anchor="middle">Search</text>

  <!-- Quick cities -->
  <rect x="20" y="60" width="52" height="20" rx="10" fill="#d4a843" fill-opacity="0.2" stroke="#d4a843" stroke-width="1" stroke-opacity="0.5"/>
  <text x="46" y="74" font-size="10" fill="#d4a843" text-anchor="middle">Baguio</text>
  <rect x="78" y="60" width="46" height="20" rx="10" fill="#d4a843" fill-opacity="0.06" stroke="#d4a843" stroke-width="1" stroke-opacity="0.2"/>
  <text x="101" y="74" font-size="10" fill="#d4a843" text-anchor="middle">Manila</text>
  <rect x="130" y="60" width="38" height="20" rx="10" fill="#d4a843" fill-opacity="0.06" stroke="#d4a843" stroke-width="1" stroke-opacity="0.2"/>
  <text x="149" y="74" font-size="10" fill="#d4a843" text-anchor="middle">Cebu</text>
  <rect x="174" y="60" width="44" height="20" rx="10" fill="#d4a843" fill-opacity="0.06" stroke="#d4a843" stroke-width="1" stroke-opacity="0.2"/>
  <text x="196" y="74" font-size="10" fill="#d4a843" text-anchor="middle">Davao</text>
  <rect x="224" y="60" width="40" height="20" rx="10" fill="#d4a843" fill-opacity="0.06" stroke="#d4a843" stroke-width="1" stroke-opacity="0.2"/>
  <text x="244" y="74" font-size="10" fill="#d4a843" text-anchor="middle">Tokyo</text>

  <!-- Main card -->
  <rect x="20" y="88" width="440" height="408" rx="18" fill="#161b22" stroke="#d4a843" stroke-width="1" stroke-opacity="0.2"/>

  <!-- City + country -->
  <text x="46" y="126" font-size="20" font-weight="700" fill="#e6edf3">Baguio City</text>
  <text x="46" y="144" font-size="12" fill="#8892a4">Philippines 🇵🇭</text>
  <text x="46" y="160" font-size="11" fill="#4a5568">10:42:33 AM</text>
  <!-- Weather icon -->
  <text x="400" y="152" font-size="52" text-anchor="middle">⛅</text>
  <text x="400" y="172" font-size="11" fill="#8892a4" text-anchor="middle">Partly Cloudy</text>

  <!-- Temp -->
  <text x="46" y="218" font-size="68" font-weight="900" fill="#d4a843" letter-spacing="-2">18</text>
  <rect x="118" y="178" width="26" height="20" rx="5" fill="#d4a843" fill-opacity="0.18" stroke="#d4a843" stroke-width="1"/>
  <text x="131" y="192" font-size="11" font-weight="700" fill="#d4a843" text-anchor="middle">°C</text>
  <rect x="118" y="202" width="26" height="20" rx="5" fill="none" stroke="#d4a843" stroke-width="1" stroke-opacity="0.25"/>
  <text x="131" y="216" font-size="11" fill="#8892a4" text-anchor="middle">°F</text>

  <!-- Detail grid -->
  <rect x="20" y="234" width="440" height="1" fill="#ffffff" fill-opacity="0.06"/>
  <text x="86" y="254" font-size="9" fill="#4a5568" text-anchor="middle">HUMIDITY</text>
  <text x="86" y="270" font-size="13" font-weight="600" fill="#e6edf3" text-anchor="middle">78%</text>
  <line x1="170" y1="237" x2="170" y2="278" stroke="#ffffff" stroke-opacity="0.06" stroke-width="1"/>
  <text x="240" y="254" font-size="9" fill="#4a5568" text-anchor="middle">WIND</text>
  <text x="240" y="270" font-size="13" font-weight="600" fill="#e6edf3" text-anchor="middle">12 km/h</text>
  <line x1="320" y1="237" x2="320" y2="278" stroke="#ffffff" stroke-opacity="0.06" stroke-width="1"/>
  <text x="390" y="254" font-size="9" fill="#4a5568" text-anchor="middle">UV INDEX</text>
  <text x="390" y="270" font-size="13" font-weight="600" fill="#e6edf3" text-anchor="middle">3 Moderate</text>
  <rect x="20" y="278" width="440" height="1" fill="#ffffff" fill-opacity="0.06"/>
  <text x="86" y="298" font-size="9" fill="#4a5568" text-anchor="middle">PRESSURE</text>
  <text x="86" y="314" font-size="13" font-weight="600" fill="#e6edf3" text-anchor="middle">1013 hPa</text>
  <line x1="170" y1="280" x2="170" y2="320" stroke="#ffffff" stroke-opacity="0.06" stroke-width="1"/>
  <text x="240" y="298" font-size="9" fill="#4a5568" text-anchor="middle">SUNRISE</text>
  <text x="240" y="314" font-size="13" font-weight="600" fill="#e6edf3" text-anchor="middle">5:48 AM</text>
  <line x1="320" y1="280" x2="320" y2="320" stroke="#ffffff" stroke-opacity="0.06" stroke-width="1"/>
  <text x="390" y="298" font-size="9" fill="#4a5568" text-anchor="middle">SUNSET</text>
  <text x="390" y="314" font-size="13" font-weight="600" fill="#e6edf3" text-anchor="middle">6:12 PM</text>

  <!-- Forecast -->
  <rect x="20" y="320" width="440" height="1" fill="#ffffff" fill-opacity="0.06"/>
  <text x="46" y="340" font-size="9" font-weight="700" fill="#d4a843" letter-spacing="1">5-DAY FORECAST</text>
  <rect x="32"  y="350" width="70" height="40" rx="8" fill="#ffffff" fill-opacity="0.03" stroke="#ffffff" stroke-opacity="0.06" stroke-width="1"/>
  <text x="67"  y="365" font-size="9" fill="#8892a4" text-anchor="middle">MON</text>
  <text x="63"  y="380" font-size="16">🌤</text><text x="67" y="385" font-size="10" font-weight="700" fill="#e6edf3" text-anchor="middle"> 19°</text>
  <rect x="110" y="350" width="70" height="40" rx="8" fill="#ffffff" fill-opacity="0.03" stroke="#ffffff" stroke-opacity="0.06" stroke-width="1"/>
  <text x="145" y="365" font-size="9" fill="#8892a4" text-anchor="middle">TUE</text>
  <text x="141" y="380" font-size="16">🌧</text><text x="145" y="385" font-size="10" font-weight="700" fill="#e6edf3" text-anchor="middle"> 16°</text>
  <rect x="188" y="350" width="70" height="40" rx="8" fill="#ffffff" fill-opacity="0.03" stroke="#ffffff" stroke-opacity="0.06" stroke-width="1"/>
  <text x="223" y="365" font-size="9" fill="#8892a4" text-anchor="middle">WED</text>
  <text x="219" y="380" font-size="16">⛈</text><text x="223" y="385" font-size="10" font-weight="700" fill="#e6edf3" text-anchor="middle"> 15°</text>
  <rect x="266" y="350" width="70" height="40" rx="8" fill="#ffffff" fill-opacity="0.03" stroke="#ffffff" stroke-opacity="0.06" stroke-width="1"/>
  <text x="301" y="365" font-size="9" fill="#8892a4" text-anchor="middle">THU</text>
  <text x="297" y="380" font-size="16">🌥</text><text x="301" y="385" font-size="10" font-weight="700" fill="#e6edf3" text-anchor="middle"> 17°</text>
  <rect x="344" y="350" width="70" height="40" rx="8" fill="#ffffff" fill-opacity="0.03" stroke="#ffffff" stroke-opacity="0.06" stroke-width="1"/>
  <text x="379" y="365" font-size="9" fill="#8892a4" text-anchor="middle">FRI</text>
  <text x="375" y="380" font-size="16">☀️</text><text x="379" y="385" font-size="10" font-weight="700" fill="#e6edf3" text-anchor="middle"> 20°</text>

  <text x="240" y="512" font-size="10" fill="#4a5568" text-anchor="middle">Screenshot 1 — Baguio City default view</text>
</svg>
