<svg viewBox="0 0 540 420" xmlns="http://www.w3.org/2000/svg" font-family="'Segoe UI', system-ui, sans-serif">
  <rect width="540" height="420" fill="#0d1117"/>
  <rect x="50" y="20" width="440" height="380" rx="16" fill="#161b22" stroke="#3fb950" stroke-width="1" stroke-opacity="0.25"/>
  <rect x="50" y="20" width="440" height="68" rx="16" fill="#0a0f1e"/>
  <rect x="50" y="74" width="440" height="14" fill="#0a0f1e"/>
  <text x="80" y="56" font-size="20" font-weight="700" fill="#d4a843">My Tasks</text>
  <text x="80" y="74" font-size="11" fill="#8892a4">Wednesday, April 16, 2025</text>

  <!-- Stats — all done! -->
  <rect x="50" y="88" width="440" height="46" fill="#3fb950" fill-opacity="0.04"/>
  <text x="110" y="108" font-size="22" font-weight="700" fill="#d4a843" text-anchor="middle">5</text>
  <text x="110" y="124" font-size="9" fill="#8892a4" text-anchor="middle" letter-spacing="1">TOTAL</text>
  <text x="200" y="108" font-size="22" font-weight="700" fill="#3fb950" text-anchor="middle">5</text>
  <text x="200" y="124" font-size="9" fill="#8892a4" text-anchor="middle" letter-spacing="1">DONE</text>
  <text x="290" y="108" font-size="22" font-weight="700" fill="#4a5568" text-anchor="middle">0</text>
  <text x="290" y="124" font-size="9" fill="#8892a4" text-anchor="middle" letter-spacing="1">PENDING</text>

  <!-- Input -->
  <rect x="72" y="148" width="240" height="34" rx="8" fill="#0d1117" stroke="#d4a843" stroke-width="1" stroke-opacity="0.2"/>
  <text x="88" y="169" font-size="12" fill="#4a5568">Add a new task...</text>
  <rect x="320" y="148" width="72" height="34" rx="8" fill="#0d1117" stroke="#d4a843" stroke-width="1" stroke-opacity="0.2"/>
  <text x="336" y="169" font-size="11" fill="#8892a4">Medium</text>
  <rect x="400" y="148" width="70" height="34" rx="8" fill="#d4a843"/>
  <text x="435" y="169" font-size="13" font-weight="700" fill="#0a0f1e" text-anchor="middle">Add</text>

  <!-- Filter: DONE active -->
  <text x="92" y="211" font-size="11" fill="#8892a4" text-anchor="middle">All</text>
  <text x="152" y="211" font-size="11" fill="#8892a4">Pending</text>
  <rect x="186" y="196" width="46" height="22" rx="11" fill="#3fb950" fill-opacity="0.15" stroke="#3fb950" stroke-width="1" stroke-opacity="0.5"/>
  <text x="209" y="211" font-size="11" fill="#3fb950" text-anchor="middle">Done</text>

  <!-- All done tasks -->
  <circle cx="90" cy="244" r="9" fill="#d4a843"/><polyline points="85,244 89,249 96,239" fill="none" stroke="#0a0f1e" stroke-width="2" stroke-linecap="round"/>
  <circle cx="105" cy="244" r="4" fill="#f85149"/>
  <text x="116" y="249" font-size="13" fill="#4a5568" text-decoration="line-through">Submit OJT application</text>

  <circle cx="90" cy="272" r="9" fill="#d4a843"/><polyline points="85,272 89,277 96,267" fill="none" stroke="#0a0f1e" stroke-width="2" stroke-linecap="round"/>
  <circle cx="105" cy="272" r="4" fill="#d4a843"/>
  <text x="116" y="277" font-size="13" fill="#4a5568" text-decoration="line-through">Finish portfolio website</text>

  <circle cx="90" cy="300" r="9" fill="#d4a843"/><polyline points="85,300 89,305 96,295" fill="none" stroke="#0a0f1e" stroke-width="2" stroke-linecap="round"/>
  <circle cx="105" cy="300" r="4" fill="#3fb950"/>
  <text x="116" y="305" font-size="13" fill="#4a5568" text-decoration="line-through">Study for finals exam</text>

  <!-- Congrats banner -->
  <rect x="72" y="322" width="396" height="52" rx="10" fill="#3fb950" fill-opacity="0.08" stroke="#3fb950" stroke-width="1" stroke-opacity="0.3"/>
  <text x="270" y="344" font-size="18" text-anchor="middle">🎉</text>
  <text x="270" y="362" font-size="12" fill="#3fb950" text-anchor="middle" font-weight="600">All tasks completed! Great work.</text>

  <text x="270" y="412" font-size="10" fill="#4a5568" text-anchor="middle">Screenshot 3 — All tasks done, Done filter active</text>
</svg>
