<svg viewBox="0 0 600 440" xmlns="http://www.w3.org/2000/svg" font-family="'Segoe UI',sans-serif" preserveAspectRatio="xMidYMid meet">
  <rect width="600" height="440" fill="#0d1117"/>
  <rect x="60" y="24" width="480" height="392" rx="16" fill="#161b22" stroke="#d4a843" stroke-width="1" stroke-opacity=".22"/>
  <rect x="60" y="24" width="480" height="64" rx="16" fill="#0a0f1e"/>
  <rect x="60" y="76" width="480" height="12" fill="#0a0f1e"/>
  <text x="300" y="58" font-size="20" font-weight="700" fill="#d4a843" text-anchor="middle">My Tasks</text>
  <text x="300" y="80" font-size="11" fill="#8892a4" text-anchor="middle">Wednesday, April 16, 2025</text>
  <!-- Stats -->
  <rect x="60" y="88" width="480" height="44" fill="#d4a843" fill-opacity=".04"/>
  <text x="180" y="108" font-size="22" font-weight="700" fill="#d4a843" text-anchor="middle">8</text>
  <text x="180" y="124" font-size="9"  fill="#8892a4" text-anchor="middle" letter-spacing="1">TOTAL</text>
  <text x="300" y="108" font-size="22" font-weight="700" fill="#3fb950" text-anchor="middle">5</text>
  <text x="300" y="124" font-size="9"  fill="#8892a4" text-anchor="middle" letter-spacing="1">DONE</text>
  <text x="420" y="108" font-size="22" font-weight="700" fill="#f0c060" text-anchor="middle">3</text>
  <text x="420" y="124" font-size="9"  fill="#8892a4" text-anchor="middle" letter-spacing="1">PENDING</text>
  <!-- Input -->
  <rect x="82" y="146" width="272" height="34" rx="8" fill="#0d1117" stroke="#d4a843" stroke-opacity=".2" stroke-width="1"/>
  <text x="98" y="167" font-size="12" fill="#4a5568">Add a new task...</text>
  <rect x="362" y="146" width="80" height="34" rx="8" fill="#0d1117" stroke="#d4a843" stroke-opacity=".2" stroke-width="1"/>
  <text x="378" y="167" font-size="11" fill="#8892a4">Medium</text>
  <rect x="450" y="146" width="72" height="34" rx="8" fill="#d4a843"/>
  <text x="486" y="167" font-size="13" font-weight="700" fill="#0a0f1e" text-anchor="middle">Add</text>
  <!-- PENDING filter active -->
  <text x="104" y="209" font-size="11" fill="#8892a4" text-anchor="middle">All</text>
  <rect x="122" y="194" width="68" height="22" rx="11" fill="#d4a843" fill-opacity=".15" stroke="#d4a843" stroke-opacity=".4" stroke-width="1"/>
  <text x="156" y="209" font-size="11" fill="#d4a843" text-anchor="middle">Pending</text>
  <text x="214" y="209" font-size="11" fill="#8892a4">Done</text>
  <!-- Only pending tasks -->
  <circle cx="100" cy="248" r="9" fill="none" stroke="#d4a843" stroke-width="1.5" stroke-opacity=".5"/>
  <circle cx="116" cy="248" r="4" fill="#f85149"/>
  <text x="128" y="253" font-size="13" fill="#e6edf3">Submit OJT application</text>
  <circle cx="100" cy="282" r="9" fill="none" stroke="#d4a843" stroke-width="1.5" stroke-opacity=".5"/>
  <circle cx="116" cy="282" r="4" fill="#d4a843"/>
  <text x="128" y="287" font-size="13" fill="#e6edf3">Finish portfolio website</text>
  <circle cx="100" cy="316" r="9" fill="none" stroke="#d4a843" stroke-width="1.5" stroke-opacity=".5"/>
  <circle cx="116" cy="316" r="4" fill="#3fb950"/>
  <text x="128" y="321" font-size="13" fill="#e6edf3">Study for finals exam</text>
  <!-- Empty space indicator -->
  <text x="300" y="382" font-size="12" fill="#4a5568" text-anchor="middle">Showing 3 pending tasks only</text>
</svg>
