<svg viewBox="0 0 600 440" xmlns="http://www.w3.org/2000/svg" font-family="'Segoe UI',sans-serif" preserveAspectRatio="xMidYMid meet">
  <rect width="600" height="440" fill="#0d1117"/>
  <rect x="60" y="24" width="480" height="392" rx="16" fill="#161b22" stroke="#3fb950" stroke-width="1" stroke-opacity=".3"/>
  <rect x="60" y="24" width="480" height="64" rx="16" fill="#0a0f1e"/>
  <rect x="60" y="76" width="480" height="12" fill="#0a0f1e"/>
  <text x="300" y="58" font-size="20" font-weight="700" fill="#d4a843" text-anchor="middle">My Tasks</text>
  <text x="300" y="80" font-size="11" fill="#8892a4" text-anchor="middle">Wednesday, April 16, 2025</text>
  <!-- Stats - all done -->
  <rect x="60" y="88" width="480" height="44" fill="#3fb950" fill-opacity=".04"/>
  <text x="180" y="108" font-size="22" font-weight="700" fill="#d4a843" text-anchor="middle">5</text>
  <text x="180" y="124" font-size="9"  fill="#8892a4" text-anchor="middle" letter-spacing="1">TOTAL</text>
  <text x="300" y="108" font-size="22" font-weight="700" fill="#3fb950" text-anchor="middle">5</text>
  <text x="300" y="124" font-size="9"  fill="#8892a4" text-anchor="middle" letter-spacing="1">DONE</text>
  <text x="420" y="108" font-size="22" font-weight="700" fill="#4a5568" text-anchor="middle">0</text>
  <text x="420" y="124" font-size="9"  fill="#8892a4" text-anchor="middle" letter-spacing="1">PENDING</text>
  <!-- Input -->
  <rect x="82" y="146" width="272" height="34" rx="8" fill="#0d1117" stroke="#d4a843" stroke-opacity=".2" stroke-width="1"/>
  <text x="98" y="167" font-size="12" fill="#4a5568">Add a new task...</text>
  <rect x="450" y="146" width="72" height="34" rx="8" fill="#d4a843"/>
  <text x="486" y="167" font-size="13" font-weight="700" fill="#0a0f1e" text-anchor="middle">Add</text>
  <!-- DONE filter active -->
  <text x="104" y="209" font-size="11" fill="#8892a4" text-anchor="middle">All</text>
  <text x="158" y="209" font-size="11" fill="#8892a4">Pending</text>
  <rect x="186" y="194" width="50" height="22" rx="11" fill="#3fb950" fill-opacity=".15" stroke="#3fb950" stroke-opacity=".5" stroke-width="1"/>
  <text x="211" y="209" font-size="11" fill="#3fb950" text-anchor="middle">Done</text>
  <!-- All done tasks -->
  <circle cx="100" cy="246" r="9" fill="#d4a843"/><polyline points="95,246 99,251 106,241" fill="none" stroke="#0a0f1e" stroke-width="2" stroke-linecap="round"/>
  <circle cx="116" cy="246" r="4" fill="#f85149"/>
  <text x="128" y="251" font-size="13" fill="#4a5568" text-decoration="line-through">Submit OJT application</text>
  <circle cx="100" cy="276" r="9" fill="#d4a843"/><polyline points="95,276 99,281 106,271" fill="none" stroke="#0a0f1e" stroke-width="2" stroke-linecap="round"/>
  <circle cx="116" cy="276" r="4" fill="#d4a843"/>
  <text x="128" y="281" font-size="13" fill="#4a5568" text-decoration="line-through">Finish portfolio website</text>
  <circle cx="100" cy="306" r="9" fill="#d4a843"/><polyline points="95,306 99,311 106,301" fill="none" stroke="#0a0f1e" stroke-width="2" stroke-linecap="round"/>
  <circle cx="116" cy="306" r="4" fill="#3fb950"/>
  <text x="128" y="311" font-size="13" fill="#4a5568" text-decoration="line-through">Study for finals exam</text>
  <!-- Congrats box -->
  <rect x="82" y="330" width="436" height="58" rx="10" fill="#3fb950" fill-opacity=".07" stroke="#3fb950" stroke-width="1" stroke-opacity=".3"/>
  <text x="300" y="356" font-size="22" text-anchor="middle">🎉</text>
  <text x="300" y="378" font-size="13" fill="#3fb950" text-anchor="middle" font-weight="600">All tasks completed! Great work.</text>
</svg>
