<svg viewBox="0 0 540 600" xmlns="http://www.w3.org/2000/svg" font-family="'Segoe UI',system-ui,sans-serif" preserveAspectRatio="xMidYMid meet">
<defs>
  <linearGradient id="hg" x1="0" y1="0" x2="1" y2="1">
    <stop offset="0%" stop-color="#0a0f1e"/>
    <stop offset="100%" stop-color="#1a2236"/>
  </linearGradient>
</defs>
<!-- CARD -->
<rect width="540" height="600" rx="16" fill="#161b22" stroke="#d4a843" stroke-width="1" stroke-opacity=".22"/>
<!-- HEADER -->
<rect x="0" y="0" width="540" height="90" rx="16" fill="url(#hg)"/>
<rect x="0" y="76" width="540" height="14" fill="#0a0f1e"/>
<text x="270" y="46" font-size="24" font-weight="700" fill="#d4a843" text-anchor="middle">My Tasks</text>
<text x="270" y="68" font-size="11" fill="#8892a4" text-anchor="middle">Wednesday, April 16, 2025</text>
<!-- STATS -->
<rect x="0" y="90" width="540" height="56" fill="#d4a843" fill-opacity=".04"/>
<rect x="0" y="145" width="540" height="1" fill="#d4a843" fill-opacity=".1"/>
<text x="90"  y="114" font-size="20" font-weight="700" fill="#d4a843" text-anchor="middle">8</text>
<text x="90"  y="130" font-size="9"  fill="#8892a4" text-anchor="middle" letter-spacing="1">TOTAL</text>
<text x="270" y="114" font-size="20" font-weight="700" fill="#3fb950" text-anchor="middle">5</text>
<text x="270" y="130" font-size="9"  fill="#8892a4" text-anchor="middle" letter-spacing="1">DONE</text>
<text x="450" y="114" font-size="20" font-weight="700" fill="#f0c060" text-anchor="middle">3</text>
<text x="450" y="130" font-size="9"  fill="#8892a4" text-anchor="middle" letter-spacing="1">PENDING</text>
<!-- INPUT ROW -->
<rect x="0" y="146" width="540" height="1" fill="#ffffff" fill-opacity=".06"/>
<rect x="28" y="160" width="314" height="36" rx="8" fill="#0d1117" stroke="#d4a843" stroke-width="1.5"/>
<text x="44"  y="182" font-size="12" fill="#e6edf3">Study for finals exam|</text>
<rect x="350" y="160" width="70"  height="36" rx="8" fill="#0d1117" stroke="#d4a843" stroke-opacity=".25" stroke-width="1"/>
<text x="365" y="182" font-size="11" fill="#8892a4">Medium</text>
<rect x="428" y="160" width="84"  height="36" rx="8" fill="#d4a843"/>
<text x="470" y="182" font-size="13" font-weight="700" fill="#0a0f1e" text-anchor="middle">Add</text>
<!-- STATUS FILTER TABS -->
<rect x="0" y="212" width="540" height="1" fill="#ffffff" fill-opacity=".06"/>
<rect x="0" y="213" width="540" height="40" fill="#0d1117"/>
<rect x="28" y="221" width="42" height="24" rx="12" fill="#d4a843" fill-opacity=".12" stroke="#d4a843" stroke-opacity=".35" stroke-width="1"/>
<text x="49"  y="237" font-size="12" fill="#d4a843" text-anchor="middle">All</text>
<text x="113" y="237" font-size="12" fill="#8892a4" text-anchor="middle">Pending</text>
<text x="181" y="237" font-size="12" fill="#8892a4" text-anchor="middle">Done</text>
<!-- PRIORITY FILTER ROW -->
<rect x="0" y="253" width="540" height="1" fill="#ffffff" fill-opacity=".04"/>
<rect x="0" y="254" width="540" height="36" fill="#0d1117"/>
<text x="28"  y="277" font-size="9" fill="#4a5568" letter-spacing="1">PRIORITY:</text>
<rect x="90"  y="264" width="32" height="18" rx="9" fill="#d4a843" fill-opacity=".1" stroke="#d4a843" stroke-opacity=".3" stroke-width="1"/>
<text x="106" y="277" font-size="9" fill="#d4a843" text-anchor="middle">All</text>
<circle cx="136" cy="273" r="4" fill="#f85149"/>
<text x="145" y="277" font-size="9" fill="#8892a4">High</text>
<circle cx="181" cy="273" r="4" fill="#d4a843"/>
<text x="190" y="277" font-size="9" fill="#8892a4">Medium</text>
<circle cx="238" cy="273" r="4" fill="#3fb950"/>
<text x="247" y="277" font-size="9" fill="#8892a4">Low</text>
<!-- DIVIDER -->
<rect x="0" y="290" width="540" height="1" fill="#ffffff" fill-opacity=".05"/>
<!-- TASK ROWS — y start 304, gap 40px -->
<circle cx="46" cy="322" r="10" fill="#d4a843"/>
<polyline points="40,322 44,328 53,314" fill="none" stroke="#0a0f1e" stroke-width="2.2" stroke-linecap="round" stroke-linejoin="round"/>
<circle cx="64" cy="322" r="5" fill="#f85149"/>
<text x="76" y="327" font-size="13" fill="#4a5568" text-decoration="line-through">Buy groceries</text>
<circle cx="46" cy="362" r="10" fill="#d4a843"/>
<polyline points="40,362 44,368 53,354" fill="none" stroke="#0a0f1e" stroke-width="2.2" stroke-linecap="round" stroke-linejoin="round"/>
<circle cx="64" cy="362" r="5" fill="#d4a843"/>
<text x="76" y="367" font-size="13" fill="#4a5568" text-decoration="line-through">Review lecture notes</text>
<circle cx="46" cy="402" r="10" fill="#d4a843"/>
<polyline points="40,402 44,408 53,394" fill="none" stroke="#0a0f1e" stroke-width="2.2" stroke-linecap="round" stroke-linejoin="round"/>
<circle cx="64" cy="402" r="5" fill="#3fb950"/>
<text x="76" y="407" font-size="13" fill="#4a5568" text-decoration="line-through">Morning run</text>
<circle cx="46" cy="442" r="10" fill="none" stroke="#d4a843" stroke-width="1.5" stroke-opacity=".5"/>
<circle cx="64" cy="442" r="5" fill="#f85149"/>
<text x="76" y="447" font-size="13" fill="#e6edf3">Submit OJT application</text>
<rect x="28" y="458" width="484" height="40" rx="7" fill="#d4a843" fill-opacity=".04"/>
<circle cx="46" cy="478" r="10" fill="none" stroke="#d4a843" stroke-width="1.5" stroke-opacity=".5"/>
<circle cx="64" cy="478" r="5" fill="#d4a843"/>
<text x="76" y="483" font-size="13" fill="#e6edf3">Study for finals exam</text>
<text x="504" y="483" font-size="10" fill="#d4a843" font-style="italic" text-anchor="end">just added</text>
<!-- BOTTOM BAR -->
<rect x="0" y="546" width="540" height="1" fill="#ffffff" fill-opacity=".06"/>
<rect x="0" y="547" width="540" height="53" fill="#0d1117" fill-opacity=".5" rx="0"/>
<rect x="392" y="558" width="120" height="22" rx="7" fill="none" stroke="#f85149" stroke-width="1" stroke-opacity=".4"/>
<text x="452" y="573" font-size="11" fill="#f85149" text-anchor="middle">Clear Completed</text>
</svg>
