<svg viewBox="0 0 600 500" xmlns="http://www.w3.org/2000/svg" font-family="'Segoe UI',sans-serif" preserveAspectRatio="xMidYMid meet">
  <rect width="600" height="500" fill="#0d1117"/>
  <!-- Card centered -->
  <rect x="60" y="24" width="480" height="452" rx="16" fill="#161b22" stroke="#d4a843" stroke-width="1" stroke-opacity=".22"/>
  <!-- Header -->
  <rect x="60" y="24" width="480" height="64" rx="16" fill="#0a0f1e"/>
  <rect x="60" y="76" width="480" height="12" fill="#0a0f1e"/>
  <text x="300" y="58" font-size="20" font-weight="700" fill="#d4a843" text-anchor="middle">My Tasks</text>
  <text x="300" y="80" font-size="11" fill="#8892a4" text-anchor="middle">Wednesday, April 16, 2025</text>
  <!-- Stats -->
  <rect x="60" y="88" width="480" height="44" fill="#d4a843" fill-opacity=".04"/>
  <text x="180" y="108" font-size="22" font-weight="700" fill="#d4a843" text-anchor="middle">8</text>
  <text x="180" y="124" font-size="9"  fill="#8892a4" text-anchor="middle" letter-spacing="1">TOTAL</text>
  <text x="300" y="108" font-size="22" font-weight="700" fill="#3fb950" text-anchor="middle">5</text>
  <text x="300" y="124" font-size="9"  fill="#8892a4" text-anchor="middle" letter-spacing="1">DONE</text>
  <text x="420" y="108" font-size="22" font-weight="700" fill="#f0c060" text-anchor="middle">3</text>
  <text x="420" y="124" font-size="9"  fill="#8892a4" text-anchor="middle" letter-spacing="1">PENDING</text>
  <!-- Input row -->
  <rect x="82" y="146" width="272" height="34" rx="8" fill="#0d1117" stroke="#d4a843" stroke-width="1.5"/>
  <text x="98" y="167" font-size="12" fill="#e6edf3">Study for finals exam|</text>
  <rect x="362" y="146" width="80" height="34" rx="8" fill="#0d1117" stroke="#d4a843" stroke-opacity=".25" stroke-width="1"/>
  <text x="378" y="167" font-size="11" fill="#8892a4">Medium</text>
  <rect x="450" y="146" width="72" height="34" rx="8" fill="#d4a843"/>
  <text x="486" y="167" font-size="13" font-weight="700" fill="#0a0f1e" text-anchor="middle">Add</text>
  <!-- Filter tabs -->
  <rect x="82" y="194" width="44" height="22" rx="11" fill="#d4a843" fill-opacity=".15" stroke="#d4a843" stroke-opacity=".4" stroke-width="1"/>
  <text x="104" y="209" font-size="11" fill="#d4a843" text-anchor="middle">All</text>
  <text x="152" y="209" font-size="11" fill="#8892a4">Pending</text>
  <text x="214" y="209" font-size="11" fill="#8892a4">Done</text>
  <!-- Done tasks -->
  <circle cx="100" cy="244" r="9" fill="#d4a843"/><polyline points="95,244 99,249 106,239" fill="none" stroke="#0a0f1e" stroke-width="2" stroke-linecap="round"/>
  <circle cx="116" cy="244" r="4" fill="#f85149"/>
  <text x="128" y="249" font-size="13" fill="#4a5568" text-decoration="line-through">Buy groceries</text>
  <circle cx="100" cy="274" r="9" fill="#d4a843"/><polyline points="95,274 99,279 106,269" fill="none" stroke="#0a0f1e" stroke-width="2" stroke-linecap="round"/>
  <circle cx="116" cy="274" r="4" fill="#d4a843"/>
  <text x="128" y="279" font-size="13" fill="#4a5568" text-decoration="line-through">Review lecture notes</text>
  <circle cx="100" cy="304" r="9" fill="#d4a843"/><polyline points="95,304 99,309 106,299" fill="none" stroke="#0a0f1e" stroke-width="2" stroke-linecap="round"/>
  <circle cx="116" cy="304" r="4" fill="#3fb950"/>
  <text x="128" y="309" font-size="13" fill="#4a5568" text-decoration="line-through">Morning run</text>
  <!-- Pending tasks -->
  <circle cx="100" cy="334" r="9" fill="none" stroke="#d4a843" stroke-width="1.5" stroke-opacity=".5"/>
  <circle cx="116" cy="334" r="4" fill="#f85149"/>
  <text x="128" y="339" font-size="13" fill="#e6edf3">Submit OJT application</text>
  <circle cx="100" cy="364" r="9" fill="none" stroke="#d4a843" stroke-width="1.5" stroke-opacity=".5"/>
  <circle cx="116" cy="364" r="4" fill="#d4a843"/>
  <text x="128" y="369" font-size="13" fill="#e6edf3">Finish portfolio website</text>
  <!-- Highlighted new task -->
  <rect x="72" y="380" width="456" height="32" rx="7" fill="#d4a843" fill-opacity=".04"/>
  <circle cx="100" cy="396" r="9" fill="none" stroke="#d4a843" stroke-width="1.5" stroke-opacity=".5"/>
  <circle cx="116" cy="396" r="4" fill="#d4a843"/>
  <text x="128" y="401" font-size="13" fill="#e6edf3">Study for finals exam</text>
  <text x="500" y="401" font-size="10" fill="#d4a843" font-style="italic" text-anchor="middle">just added</text>
  <!-- Bottom bar -->
  <rect x="60" y="432" width="480" height="44" fill="#0d1117" fill-opacity=".5" rx="0"/>
  <rect x="60" y="432" width="480" height="16" fill="#0d1117" fill-opacity=".5"/>
  <rect x="392" y="440" width="120" height="20" rx="8" fill="none" stroke="#f85149" stroke-width="1" stroke-opacity=".4"/>
  <text x="452" y="454" font-size="10" fill="#f85149" text-anchor="middle">Clear Completed</text>
</svg>
