<svg viewBox="0 0 540 460" xmlns="http://www.w3.org/2000/svg" font-family="'Segoe UI', system-ui, sans-serif">
  <rect width="540" height="460" fill="#0d1117"/>
  <!-- Card -->
  <rect x="50" y="20" width="440" height="420" rx="16" fill="#161b22" stroke="#d4a843" stroke-width="1" stroke-opacity="0.22"/>
  <!-- Header -->
  <rect x="50" y="20" width="440" height="68" rx="16" fill="#0a0f1e"/>
  <rect x="50" y="74" width="440" height="14" fill="#0a0f1e"/>
  <text x="80" y="56" font-size="20" font-weight="700" fill="#d4a843">My Tasks</text>
  <text x="80" y="74" font-size="11" fill="#8892a4">Wednesday, April 16, 2025</text>

  <!-- Stats -->
  <rect x="50" y="88" width="440" height="46" fill="#d4a843" fill-opacity="0.04"/>
  <text x="110" y="108" font-size="22" font-weight="700" fill="#d4a843" text-anchor="middle">8</text>
  <text x="110" y="124" font-size="9" fill="#8892a4" text-anchor="middle" letter-spacing="1">TOTAL</text>
  <text x="200" y="108" font-size="22" font-weight="700" fill="#3fb950" text-anchor="middle">5</text>
  <text x="200" y="124" font-size="9" fill="#8892a4" text-anchor="middle" letter-spacing="1">DONE</text>
  <text x="290" y="108" font-size="22" font-weight="700" fill="#f0c060" text-anchor="middle">3</text>
  <text x="290" y="124" font-size="9" fill="#8892a4" text-anchor="middle" letter-spacing="1">PENDING</text>

  <!-- Input row - highlighted (user is typing) -->
  <rect x="72" y="148" width="240" height="34" rx="8" fill="#0d1117" stroke="#d4a843" stroke-width="1.5"/>
  <text x="88" y="169" font-size="12" fill="#e6edf3">Study for finals exam|</text>
  <rect x="320" y="148" width="72" height="34" rx="8" fill="#0d1117" stroke="#d4a843" stroke-width="1" stroke-opacity="0.25"/>
  <text x="336" y="169" font-size="11" fill="#8892a4">Medium</text>
  <rect x="400" y="148" width="70" height="34" rx="8" fill="#d4a843"/>
  <text x="435" y="169" font-size="13" font-weight="700" fill="#0a0f1e" text-anchor="middle">Add</text>

  <!-- Filter: All active -->
  <rect x="72" y="196" width="40" height="22" rx="11" fill="#d4a843" fill-opacity="0.15" stroke="#d4a843" stroke-width="1" stroke-opacity="0.4"/>
  <text x="92" y="211" font-size="11" fill="#d4a843" text-anchor="middle">All</text>
  <text x="134" y="211" font-size="11" fill="#8892a4">Pending</text>
  <text x="192" y="211" font-size="11" fill="#8892a4">Done</text>

  <!-- Task list -->
  <!-- done 1 -->
  <circle cx="90" cy="244" r="9" fill="#d4a843"/><polyline points="85,244 89,249 96,239" fill="none" stroke="#0a0f1e" stroke-width="2" stroke-linecap="round"/>
  <circle cx="105" cy="244" r="4" fill="#f85149"/>
  <text x="116" y="249" font-size="13" fill="#4a5568" text-decoration="line-through">Buy groceries</text>
  <!-- done 2 -->
  <circle cx="90" cy="272" r="9" fill="#d4a843"/><polyline points="85,272 89,277 96,267" fill="none" stroke="#0a0f1e" stroke-width="2" stroke-linecap="round"/>
  <circle cx="105" cy="272" r="4" fill="#d4a843"/>
  <text x="116" y="277" font-size="13" fill="#4a5568" text-decoration="line-through">Review lecture notes</text>
  <!-- done 3 -->
  <circle cx="90" cy="300" r="9" fill="#d4a843"/><polyline points="85,300 89,305 96,295" fill="none" stroke="#0a0f1e" stroke-width="2" stroke-linecap="round"/>
  <circle cx="105" cy="300" r="4" fill="#3fb950"/>
  <text x="116" y="305" font-size="13" fill="#4a5568" text-decoration="line-through">Morning run</text>
  <!-- pending 1 -->
  <circle cx="90" cy="328" r="9" fill="none" stroke="#d4a843" stroke-width="1.5" stroke-opacity="0.5"/>
  <circle cx="105" cy="328" r="4" fill="#f85149"/>
  <text x="116" y="333" font-size="13" fill="#e6edf3">Submit OJT application</text>
  <!-- pending 2 -->
  <circle cx="90" cy="356" r="9" fill="none" stroke="#d4a843" stroke-width="1.5" stroke-opacity="0.5"/>
  <circle cx="105" cy="356" r="4" fill="#d4a843"/>
  <text x="116" y="361" font-size="13" fill="#e6edf3">Finish portfolio website</text>
  <!-- pending 3 (being added) - slightly highlighted row -->
  <rect x="62" y="370" width="418" height="30" rx="6" fill="#d4a843" fill-opacity="0.04"/>
  <circle cx="90" cy="384" r="9" fill="none" stroke="#d4a843" stroke-width="1.5" stroke-opacity="0.5"/>
  <circle cx="105" cy="384" r="4" fill="#d4a843"/>
  <text x="116" y="389" font-size="13" fill="#e6edf3">Study for finals exam</text>
  <text x="436" y="389" font-size="10" fill="#d4a843" font-style="italic">just added</text>

  <!-- Bottom -->
  <rect x="50" y="420" width="440" height="20" rx="0" fill="#0d1117" fill-opacity="0.4"/>
  <rect x="370" y="426" width="106" height="16" rx="7" fill="none" stroke="#f85149" stroke-width="1" stroke-opacity="0.4"/>
  <text x="423" y="438" font-size="10" fill="#f85149" text-anchor="middle">Clear Completed</text>

  <!-- label -->
  <text x="270" y="456" font-size="10" fill="#4a5568" text-anchor="middle">Screenshot 1 — Adding a new task</text>
</svg>
