<svg viewBox="0 0 540 400" xmlns="http://www.w3.org/2000/svg" font-family="'Segoe UI', system-ui, sans-serif">
  <rect width="540" height="400" fill="#0d1117"/>
  <rect x="50" y="20" width="440" height="360" rx="16" fill="#161b22" stroke="#d4a843" stroke-width="1" stroke-opacity="0.22"/>
  <rect x="50" y="20" width="440" height="68" rx="16" fill="#0a0f1e"/>
  <rect x="50" y="74" width="440" height="14" fill="#0a0f1e"/>
  <text x="80" y="56" font-size="20" font-weight="700" fill="#d4a843">My Tasks</text>
  <text x="80" y="74" font-size="11" fill="#8892a4">Wednesday, April 16, 2025</text>

  <!-- Stats -->
  <rect x="50" y="88" width="440" height="46" fill="#d4a843" fill-opacity="0.04"/>
  <text x="110" y="108" font-size="22" font-weight="700" fill="#d4a843" text-anchor="middle">8</text>
  <text x="110" y="124" font-size="9" fill="#8892a4" text-anchor="middle" letter-spacing="1">TOTAL</text>
  <text x="200" y="108" font-size="22" font-weight="700" fill="#3fb950" text-anchor="middle">5</text>
  <text x="200" y="124" font-size="9" fill="#8892a4" text-anchor="middle" letter-spacing="1">DONE</text>
  <text x="290" y="108" font-size="22" font-weight="700" fill="#f0c060" text-anchor="middle">3</text>
  <text x="290" y="124" font-size="9" fill="#8892a4" text-anchor="middle" letter-spacing="1">PENDING</text>

  <!-- Input row -->
  <rect x="72" y="148" width="240" height="34" rx="8" fill="#0d1117" stroke="#d4a843" stroke-width="1" stroke-opacity="0.2"/>
  <text x="88" y="169" font-size="12" fill="#4a5568">Add a new task...</text>
  <rect x="320" y="148" width="72" height="34" rx="8" fill="#0d1117" stroke="#d4a843" stroke-width="1" stroke-opacity="0.2"/>
  <text x="336" y="169" font-size="11" fill="#8892a4">Medium</text>
  <rect x="400" y="148" width="70" height="34" rx="8" fill="#d4a843"/>
  <text x="435" y="169" font-size="13" font-weight="700" fill="#0a0f1e" text-anchor="middle">Add</text>

  <!-- Filter: PENDING active -->
  <text x="92" y="211" font-size="11" fill="#8892a4" text-anchor="middle">All</text>
  <rect x="112" y="196" width="64" height="22" rx="11" fill="#d4a843" fill-opacity="0.15" stroke="#d4a843" stroke-width="1" stroke-opacity="0.4"/>
  <text x="144" y="211" font-size="11" fill="#d4a843" text-anchor="middle">Pending</text>
  <text x="202" y="211" font-size="11" fill="#8892a4">Done</text>

  <!-- Only pending tasks shown -->
  <circle cx="90" cy="244" r="9" fill="none" stroke="#d4a843" stroke-width="1.5" stroke-opacity="0.5"/>
  <circle cx="105" cy="244" r="4" fill="#f85149"/>
  <text x="116" y="249" font-size="13" fill="#e6edf3">Submit OJT application</text>

  <circle cx="90" cy="274" r="9" fill="none" stroke="#d4a843" stroke-width="1.5" stroke-opacity="0.5"/>
  <circle cx="105" cy="274" r="4" fill="#d4a843"/>
  <text x="116" y="279" font-size="13" fill="#e6edf3">Finish portfolio website</text>

  <circle cx="90" cy="304" r="9" fill="none" stroke="#d4a843" stroke-width="1.5" stroke-opacity="0.5"/>
  <circle cx="105" cy="304" r="4" fill="#3fb950"/>
  <text x="116" y="309" font-size="13" fill="#e6edf3">Study for finals exam</text>

  <!-- empty below -->
  <text x="270" y="360" font-size="11" fill="#4a5568" text-anchor="middle">Showing 3 pending tasks</text>
  <text x="270" y="392" font-size="10" fill="#4a5568" text-anchor="middle">Screenshot 2 — Filter: Pending tasks only</text>
</svg>
